<svg width="43" height="43" viewBox="0 0 43 43" fill="none" xmlns="http://www.w3.org/2000/svg">
<path d="M5.98873 13.9342C6.39392 12.956 6.9878 12.0672 7.73649 11.3185C8.48516 10.5698 9.37397 9.97595 10.3522 9.57076C11.3304 9.16558 12.3788 8.95703 13.4376 8.95703C14.4964 8.95703 15.5448 9.16558 16.523 9.57076C17.5012 9.97595 18.39 10.5698 19.1387 11.3185L21.5001 13.6799L23.8615 11.3185C25.3735 9.8065 27.4242 8.95705 29.5626 8.95705C31.7009 8.95705 33.7516 9.8065 35.2636 11.3185C36.7757 12.8305 37.6251 14.8813 37.6251 17.0196C37.6251 19.1579 36.7757 21.2087 35.2636 22.7207L21.5001 36.4843L7.73649 22.7207C6.9878 21.972 6.39392 21.0832 5.98873 20.105C5.58355 19.1268 5.375 18.0784 5.375 17.0196C5.375 15.9608 5.58355 14.9124 5.98873 13.9342Z" stroke="#52555B" stroke-width="2.4" stroke-linecap="round" stroke-linejoin="round"/>
</svg>
