<svg width="42" height="46" viewBox="0 0 42 46" fill="none" xmlns="http://www.w3.org/2000/svg">
<g filter="url(#filter0_d_139_11413)">
<path d="M5.25 5.25H8.75L9.45 8.75M9.45 8.75H36.75L29.75 22.75H12.25M9.45 8.75L12.25 22.75M12.25 22.75L8.23725 26.7628C7.13475 27.8653 7.91525 29.75 9.4745 29.75H29.75M29.75 29.75C28.8217 29.75 27.9315 30.1187 27.2751 30.7751C26.6187 31.4315 26.25 32.3217 26.25 33.25C26.25 34.1783 26.6187 35.0685 27.2751 35.7249C27.9315 36.3813 28.8217 36.75 29.75 36.75C30.6783 36.75 31.5685 36.3813 32.2249 35.7249C32.8813 35.0685 33.25 34.1783 33.25 33.25C33.25 32.3217 32.8813 31.4315 32.2249 30.7751C31.5685 30.1187 30.6783 29.75 29.75 29.75ZM15.75 33.25C15.75 34.1783 15.3813 35.0685 14.7249 35.7249C14.0685 36.3813 13.1783 36.75 12.25 36.75C11.3217 36.75 10.4315 36.3813 9.77513 35.7249C9.11875 35.0685 8.75 34.1783 8.75 33.25C8.75 32.3217 9.11875 31.4315 9.77513 30.7751C10.4315 30.1187 11.3217 29.75 12.25 29.75C13.1783 29.75 14.0685 30.1187 14.7249 30.7751C15.3813 31.4315 15.75 32.3217 15.75 33.25Z" stroke="#52555B" stroke-width="2.4" stroke-linecap="round" stroke-linejoin="round"/>
</g>
<defs>
<filter id="filter0_d_139_11413" x="-4" y="0" width="50" height="50" filterUnits="userSpaceOnUse" color-interpolation-filters="sRGB">
<feFlood flood-opacity="0" result="BackgroundImageFix"/>
<feColorMatrix in="SourceAlpha" type="matrix" values="0 0 0 0 0 0 0 0 0 0 0 0 0 0 0 0 0 0 127 0" result="hardAlpha"/>
<feOffset dy="4"/>
<feGaussianBlur stdDeviation="2"/>
<feComposite in2="hardAlpha" operator="out"/>
<feColorMatrix type="matrix" values="0 0 0 0 0 0 0 0 0 0 0 0 0 0 0 0 0 0 0.25 0"/>
<feBlend mode="normal" in2="BackgroundImageFix" result="effect1_dropShadow_139_11413"/>
<feBlend mode="normal" in="SourceGraphic" in2="effect1_dropShadow_139_11413" result="shape"/>
</filter>
</defs>
</svg>
