<svg width="570" height="27" viewBox="0 0 570 27" fill="none" xmlns="http://www.w3.org/2000/svg">
<line x1="4.37114e-08" y1="8.5" x2="215" y2="8.50002" stroke="#202123"/>
<line x1="355" y1="8.5" x2="570" y2="8.50002" stroke="#202123"/>
<g filter="url(#filter0_d_510_4297)">
<path d="M240.567 0.479999H242.227V13.7H240.567V0.479999ZM241.707 5.96H244.907V7.34H241.707V5.96ZM235.627 1.88H237.387C237.387 6.56 234.107 9.98 228.927 11.64L228.207 10.28C232.767 8.88 235.627 6.08 235.627 2.6V1.88ZM228.947 1.88H236.467V3.24H228.947V1.88ZM230.947 16.8H243.027V18.16H230.947V16.8ZM230.947 12.36H232.607V17.34H230.947V12.36ZM259.805 0.479999H261.465V13.94H259.805V0.479999ZM247.125 1.94H256.645V3.3H247.125V1.94ZM246.825 11.22L246.645 9.8C249.605 9.8 253.825 9.76 257.205 9.36L257.305 10.6C253.825 11.16 249.765 11.22 246.825 11.22ZM248.925 3.1H250.525V10.04H248.925V3.1ZM253.245 3.1H254.845V10.04H253.245V3.1ZM256.805 3.9H260.685V5.26H256.805V3.9ZM256.805 7.36H260.685V8.72H256.805V7.36ZM249.905 16.8H261.945V18.16H249.905V16.8ZM249.905 12.84H251.565V17.66H249.905V12.84ZM282.419 0.46H284.099V18.56H282.419V0.46ZM283.639 7.8H286.979V9.18H283.639V7.8ZM277.799 2.42H279.419C279.419 7.56 277.059 12.2 271.219 15.14L270.299 13.86C275.299 11.32 277.799 7.46 277.799 2.68V2.42ZM271.139 2.42H278.659V3.78H271.139V2.42ZM301.738 0.479999H303.418V10.18H301.738V0.479999ZM291.758 11.08H293.398V13.28H301.778V11.08H303.418V18.32H291.758V11.08ZM293.398 14.6V16.98H301.778V14.6H293.398ZM293.718 1.34C296.458 1.34 298.418 3.04 298.418 5.5C298.418 7.98 296.458 9.68 293.718 9.68C290.978 9.68 288.998 7.98 288.998 5.5C288.998 3.04 290.978 1.34 293.718 1.34ZM293.718 2.72C291.918 2.72 290.618 3.86 290.618 5.5C290.618 7.14 291.918 8.28 293.718 8.28C295.518 8.28 296.818 7.14 296.818 5.5C296.818 3.86 295.518 2.72 293.718 2.72ZM319.236 0.479999H320.896V18.56H319.236V0.479999ZM320.496 7.9H323.856V9.3H320.496V7.9ZM306.896 3.36H317.556V4.72H306.896V3.36ZM312.296 6.22C314.856 6.22 316.696 7.94 316.696 10.38C316.696 12.82 314.856 14.54 312.296 14.54C309.756 14.54 307.896 12.82 307.896 10.38C307.896 7.94 309.756 6.22 312.296 6.22ZM312.296 7.6C310.656 7.6 309.476 8.74 309.476 10.38C309.476 12 310.656 13.16 312.296 13.16C313.936 13.16 315.116 12 315.116 10.38C315.116 8.74 313.936 7.6 312.296 7.6ZM311.436 0.699999H313.096V3.98H311.436V0.699999ZM338.555 0.479999H340.215V18.56H338.555V0.479999ZM333.255 2.42H334.895C334.895 7.66 332.535 12.24 326.495 15.2L325.615 13.86C330.835 11.34 333.255 7.5 333.255 2.7V2.42ZM326.435 2.42H333.975V3.78H326.435V2.42Z" fill="#202123"/>
</g>
<defs>
<filter id="filter0_d_510_4297" x="224.207" y="0.460938" width="120.008" height="26.1016" filterUnits="userSpaceOnUse" color-interpolation-filters="sRGB">
<feFlood flood-opacity="0" result="BackgroundImageFix"/>
<feColorMatrix in="SourceAlpha" type="matrix" values="0 0 0 0 0 0 0 0 0 0 0 0 0 0 0 0 0 0 127 0" result="hardAlpha"/>
<feOffset dy="4"/>
<feGaussianBlur stdDeviation="2"/>
<feComposite in2="hardAlpha" operator="out"/>
<feColorMatrix type="matrix" values="0 0 0 0 0 0 0 0 0 0 0 0 0 0 0 0 0 0 0.25 0"/>
<feBlend mode="normal" in2="BackgroundImageFix" result="effect1_dropShadow_510_4297"/>
<feBlend mode="normal" in="SourceGraphic" in2="effect1_dropShadow_510_4297" result="shape"/>
</filter>
</defs>
</svg>
