<svg width="42" height="42" viewBox="0 0 42 42" fill="none" xmlns="http://www.w3.org/2000/svg">
<path d="M25.9497 17.1997C27.2625 15.887 28 14.1065 28 12.25C28 10.3935 27.2625 8.61301 25.9497 7.30025C24.637 5.9875 22.8565 5.25 21 5.25C19.1435 5.25 17.363 5.9875 16.0503 7.30025C14.7375 8.61301 14 10.3935 14 12.25C14 14.1065 14.7375 15.887 16.0503 17.1997C17.363 18.5125 19.1435 19.25 21 19.25C22.8565 19.25 24.637 18.5125 25.9497 17.1997Z" stroke="#52555B" stroke-width="2.4" stroke-linecap="round" stroke-linejoin="round"/>
<path d="M12.3379 28.0879C14.6353 25.7906 17.7511 24.5 21 24.5C24.2489 24.5 27.3647 25.7906 29.6621 28.0879C31.9594 30.3853 33.25 33.5011 33.25 36.75H8.75C8.75 33.5011 10.0406 30.3853 12.3379 28.0879Z" stroke="#52555B" stroke-width="2.4" stroke-linecap="round" stroke-linejoin="round"/>
</svg>
