<svg width="584" height="68" viewBox="0 0 584 68" fill="none" xmlns="http://www.w3.org/2000/svg">
<g filter="url(#filter0_d_323_19686)">
<rect x="7" y="7" width="570" height="54" rx="5" fill="#03C75A"/>
<g clip-path="url(#clip0_323_19686)">
<path d="M207.849 34.5627L201.917 26H197V42H202.151V33.436L208.083 42H213V26H207.849V34.5627Z" fill="white"/>
</g>
<path d="M229.35 27.018H231.726V36.702H229.35V27.018ZM229.35 36.09H230.52C232.536 36.09 234.21 36.018 236.136 35.622L236.442 37.62C234.444 38.052 232.644 38.124 230.52 38.124H229.35V36.09ZM240.798 25.434H243.084V42.102H240.798V25.434ZM233.994 30.69H237.792V32.616H233.994V30.69ZM237.27 25.722H239.502V41.364H237.27V25.722ZM256.709 25.416H259.121V42.138H256.709V25.416ZM250.139 26.586C252.659 26.586 254.513 28.89 254.513 32.526C254.513 36.198 252.659 38.502 250.139 38.502C247.619 38.502 245.765 36.198 245.765 32.526C245.765 28.89 247.619 26.586 250.139 26.586ZM250.139 28.764C248.897 28.764 248.051 30.078 248.051 32.526C248.051 35.01 248.897 36.342 250.139 36.342C251.381 36.342 252.209 35.01 252.209 32.526C252.209 30.078 251.381 28.764 250.139 28.764ZM273.447 25.416H275.823V42.138H273.447V25.416ZM269.667 31.284H274.131V33.21H269.667V31.284ZM262.449 26.73H264.825V30.762H268.101V26.73H270.459V38.214H262.449V26.73ZM264.825 32.616V36.288H268.101V32.616H264.825ZM293.782 25.434H296.194V37.368H293.782V25.434ZM295.51 30.078H298.408V32.04H295.51V30.078ZM289.138 26.676H291.694C291.694 31.212 288.922 34.326 283.954 35.766L282.946 33.858C287.032 32.742 289.138 30.51 289.138 27.864V26.676ZM283.666 26.676H290.434V28.602H283.666V26.676ZM285.412 39.906H296.752V41.814H285.412V39.906ZM285.412 36.162H287.824V40.752H285.412V36.162ZM311.186 25.434H313.58V37.71H311.186V25.434ZM300.044 26.622H308.846V28.53H300.044V26.622ZM299.864 35.73L299.63 33.768C302.312 33.768 306.056 33.732 309.062 33.39L309.188 35.136C306.092 35.658 302.51 35.73 299.864 35.73ZM301.358 28.296H303.662V34.002H301.358V28.296ZM305.228 28.296H307.514V34.002H305.228V28.296ZM309.17 28.35H312.482V30.258H309.17V28.35ZM309.17 31.698H312.482V33.624H309.17V31.698ZM302.564 39.906H313.958V41.814H302.564V39.906ZM302.564 36.81H304.976V41.346H302.564V36.81ZM331.521 25.416H333.933V42.084H331.521V25.416ZM333.303 31.788H336.237V33.75H333.303V31.788ZM327.147 27.144H329.487C329.487 32.148 327.579 36.432 322.035 39.222L320.703 37.404C325.077 35.136 327.147 32.076 327.147 27.558V27.144ZM321.621 27.144H328.371V29.07H321.621V27.144ZM348.871 25.434H351.283V34.398H348.871V25.434ZM340.195 35.118H342.553V36.666H348.907V35.118H351.283V41.922H340.195V35.118ZM342.553 38.502V40.014H348.907V38.502H342.553ZM342.211 26.118C344.803 26.118 346.729 27.756 346.729 30.06C346.729 32.364 344.803 34.002 342.211 34.002C339.619 34.002 337.675 32.364 337.675 30.06C337.675 27.756 339.619 26.118 342.211 26.118ZM342.211 28.098C340.933 28.098 340.015 28.836 340.015 30.06C340.015 31.302 340.933 32.022 342.211 32.022C343.471 32.022 344.389 31.302 344.389 30.06C344.389 28.836 343.471 28.098 342.211 28.098ZM364.674 25.434H367.05V42.102H364.674V25.434ZM366.51 31.932H369.462V33.93H366.51V31.932ZM353.91 27.9H363.612V29.808H353.91V27.9ZM358.788 30.744C361.218 30.744 363.018 32.4 363.018 34.722C363.018 37.044 361.218 38.7 358.788 38.7C356.358 38.7 354.558 37.044 354.558 34.722C354.558 32.4 356.358 30.744 358.788 30.744ZM358.788 32.688C357.654 32.688 356.844 33.444 356.844 34.722C356.844 36 357.654 36.756 358.788 36.756C359.922 36.756 360.732 36 360.732 34.722C360.732 33.444 359.922 32.688 358.788 32.688ZM357.582 25.704H359.976V28.62H357.582V25.704ZM382.024 25.434H384.436V42.102H382.024V25.434ZM377.11 27.162H379.486C379.486 32.256 377.758 36.432 371.836 39.294L370.594 37.386C375.382 35.082 377.11 32.058 377.11 27.594V27.162ZM371.476 27.162H378.244V29.052H371.476V27.162Z" fill="white"/>
</g>
<defs>
<filter id="filter0_d_323_19686" x="0" y="0" width="584" height="68" filterUnits="userSpaceOnUse" color-interpolation-filters="sRGB">
<feFlood flood-opacity="0" result="BackgroundImageFix"/>
<feColorMatrix in="SourceAlpha" type="matrix" values="0 0 0 0 0 0 0 0 0 0 0 0 0 0 0 0 0 0 127 0" result="hardAlpha"/>
<feMorphology radius="2" operator="dilate" in="SourceAlpha" result="effect1_dropShadow_323_19686"/>
<feOffset/>
<feGaussianBlur stdDeviation="2.5"/>
<feComposite in2="hardAlpha" operator="out"/>
<feColorMatrix type="matrix" values="0 0 0 0 0 0 0 0 0 0 0 0 0 0 0 0 0 0 0.1 0"/>
<feBlend mode="normal" in2="BackgroundImageFix" result="effect1_dropShadow_323_19686"/>
<feBlend mode="normal" in="SourceGraphic" in2="effect1_dropShadow_323_19686" result="shape"/>
</filter>
<clipPath id="clip0_323_19686">
<rect width="16" height="16" fill="white" transform="translate(197 26)"/>
</clipPath>
</defs>
</svg>
