<svg width="584" height="68" viewBox="0 0 584 68" fill="none" xmlns="http://www.w3.org/2000/svg">
<g filter="url(#filter0_d_323_19687)">
<rect x="7" y="7" width="570" height="54" rx="5" fill="#FEE500"/>
<g clip-path="url(#clip0_323_19687)">
<path fill-rule="evenodd" clip-rule="evenodd" d="M196.5 17.2031C186.558 17.2031 178.5 23.429 178.5 31.1077C178.5 35.8832 181.617 40.0931 186.363 42.597L184.366 49.8921C184.19 50.5367 184.927 51.0505 185.493 50.677L194.247 44.8995C194.985 44.9708 195.736 45.0124 196.5 45.0124C206.441 45.0124 214.5 38.7867 214.5 31.1077C214.5 23.429 206.441 17.2031 196.5 17.2031Z" fill="black"/>
</g>
<path d="M237.52 27.036H239.86C239.86 32.184 238.636 36.468 232.426 39.618L231.148 37.8C236.332 35.19 237.52 32.004 237.52 27.324V27.036ZM232.174 27.036H238.942V28.926H232.174V27.036ZM237.574 31.122V32.958L231.598 33.534L231.31 31.482L237.574 31.122ZM241.876 25.416H244.288V42.084H241.876V25.416ZM243.658 31.788H246.592V33.75H243.658V31.788ZM254.079 27.036H256.419C256.419 32.184 255.195 36.468 248.985 39.618L247.707 37.8C252.891 35.19 254.079 32.004 254.079 27.324V27.036ZM248.733 27.036H255.501V28.926H248.733V27.036ZM254.133 31.122V32.958L248.157 33.534L247.869 31.482L254.133 31.122ZM258.435 25.416H260.847V42.084H258.435V25.416ZM260.217 31.788H263.151V33.75H260.217V31.788ZM270.673 34.812H273.067V38.61H270.673V34.812ZM271.879 26.28C275.443 26.28 278.107 28.098 278.107 30.87C278.107 33.678 275.443 35.478 271.879 35.478C268.315 35.478 265.651 33.678 265.651 30.87C265.651 28.098 268.315 26.28 271.879 26.28ZM271.879 28.17C269.593 28.17 268.009 29.178 268.009 30.87C268.009 32.598 269.593 33.588 271.879 33.588C274.165 33.588 275.749 32.598 275.749 30.87C275.749 29.178 274.165 28.17 271.879 28.17ZM264.355 38.232H279.439V40.176H264.355V38.232ZM280.878 34.272H295.962V36.162H280.878V34.272ZM287.214 32.31H289.608V34.776H287.214V32.31ZM282.57 37.152H294.126V42.102H291.732V39.042H282.57V37.152ZM282.75 31.266H294.36V33.084H282.75V31.266ZM282.75 25.812H294.234V27.63H285.126V32.184H282.75V25.812ZM284.46 28.548H293.856V30.294H284.46V28.548ZM312.84 25.434H315.252V37.368H312.84V25.434ZM314.568 30.078H317.466V32.04H314.568V30.078ZM308.196 26.676H310.752C310.752 31.212 307.98 34.326 303.012 35.766L302.004 33.858C306.09 32.742 308.196 30.51 308.196 27.864V26.676ZM302.724 26.676H309.492V28.602H302.724V26.676ZM304.47 39.906H315.81V41.814H304.47V39.906ZM304.47 36.162H306.882V40.752H304.47V36.162ZM330.245 25.434H332.639V37.71H330.245V25.434ZM319.103 26.622H327.905V28.53H319.103V26.622ZM318.923 35.73L318.689 33.768C321.371 33.768 325.115 33.732 328.121 33.39L328.247 35.136C325.151 35.658 321.569 35.73 318.923 35.73ZM320.417 28.296H322.721V34.002H320.417V28.296ZM324.287 28.296H326.573V34.002H324.287V28.296ZM328.229 28.35H331.541V30.258H328.229V28.35ZM328.229 31.698H331.541V33.624H328.229V31.698ZM321.623 39.906H333.017V41.814H321.623V39.906ZM321.623 36.81H324.035V41.346H321.623V36.81ZM350.579 25.416H352.991V42.084H350.579V25.416ZM352.361 31.788H355.295V33.75H352.361V31.788ZM346.205 27.144H348.545C348.545 32.148 346.637 36.432 341.093 39.222L339.761 37.404C344.135 35.136 346.205 32.076 346.205 27.558V27.144ZM340.679 27.144H347.429V29.07H340.679V27.144ZM367.93 25.434H370.342V34.398H367.93V25.434ZM359.254 35.118H361.612V36.666H367.966V35.118H370.342V41.922H359.254V35.118ZM361.612 38.502V40.014H367.966V38.502H361.612ZM361.27 26.118C363.862 26.118 365.788 27.756 365.788 30.06C365.788 32.364 363.862 34.002 361.27 34.002C358.678 34.002 356.734 32.364 356.734 30.06C356.734 27.756 358.678 26.118 361.27 26.118ZM361.27 28.098C359.992 28.098 359.074 28.836 359.074 30.06C359.074 31.302 359.992 32.022 361.27 32.022C362.53 32.022 363.448 31.302 363.448 30.06C363.448 28.836 362.53 28.098 361.27 28.098ZM383.732 25.434H386.108V42.102H383.732V25.434ZM385.568 31.932H388.52V33.93H385.568V31.932ZM372.968 27.9H382.67V29.808H372.968V27.9ZM377.846 30.744C380.276 30.744 382.076 32.4 382.076 34.722C382.076 37.044 380.276 38.7 377.846 38.7C375.416 38.7 373.616 37.044 373.616 34.722C373.616 32.4 375.416 30.744 377.846 30.744ZM377.846 32.688C376.712 32.688 375.902 33.444 375.902 34.722C375.902 36 376.712 36.756 377.846 36.756C378.98 36.756 379.79 36 379.79 34.722C379.79 33.444 378.98 32.688 377.846 32.688ZM376.64 25.704H379.034V28.62H376.64V25.704ZM401.083 25.434H403.495V42.102H401.083V25.434ZM396.169 27.162H398.545C398.545 32.256 396.817 36.432 390.895 39.294L389.653 37.386C394.441 35.082 396.169 32.058 396.169 27.594V27.162ZM390.535 27.162H397.303V29.052H390.535V27.162Z" fill="black" fill-opacity="0.85"/>
</g>
<defs>
<filter id="filter0_d_323_19687" x="0" y="0" width="584" height="68" filterUnits="userSpaceOnUse" color-interpolation-filters="sRGB">
<feFlood flood-opacity="0" result="BackgroundImageFix"/>
<feColorMatrix in="SourceAlpha" type="matrix" values="0 0 0 0 0 0 0 0 0 0 0 0 0 0 0 0 0 0 127 0" result="hardAlpha"/>
<feMorphology radius="2" operator="dilate" in="SourceAlpha" result="effect1_dropShadow_323_19687"/>
<feOffset/>
<feGaussianBlur stdDeviation="2.5"/>
<feComposite in2="hardAlpha" operator="out"/>
<feColorMatrix type="matrix" values="0 0 0 0 0 0 0 0 0 0 0 0 0 0 0 0 0 0 0.1 0"/>
<feBlend mode="normal" in2="BackgroundImageFix" result="effect1_dropShadow_323_19687"/>
<feBlend mode="normal" in="SourceGraphic" in2="effect1_dropShadow_323_19687" result="shape"/>
</filter>
<clipPath id="clip0_323_19687">
<rect width="35.9999" height="36" fill="white" transform="translate(178.5 16)"/>
</clipPath>
</defs>
</svg>
